# xmcd
#
# Track frame offsets: 
#        150
#        11940
#        24574
#        36540
#        47783
#        61397
#        72430
#        83045
#        95111
#        108325
#        118205
#        130054
#        140641
#        153141
#        166323
#        179221
#        198772
#        211853
#        226115
#        236645
#        252821
#        264501
#
# Disc length: 3701 seconds
#
# Revision: 0
# Processed by: cddbd v1.5.2PL0 Copyright (c) Steve Scherf et al.
# Submitted via: ExactAudioCopy v0.99pb4
#
DISCID=3d0e7316
DTITLE=Various Artist - The Roots Of Jimi Hendrix
DYEAR=2008
DGENRE=Blues
TTITLE0=Money Honey - Elvis Presley
TTITLE1=Rocket 88 - Jackie Brenston
TTITLE2=Alimony Blues - T-Bone Walker
TTITLE3=Bye Bye Baby - B.B. King
TTITLE4=The Things That I Used To Do - Guitar Slim
TTITLE5=Can't Believe You Wanna Leave - Little Richard
TTITLE6=A Mother's Love - Earl King
TTITLE7=How Many More Years - Howlin' Wolf
TTITLE8=Mannish Boy - Muddy Waters
TTITLE9=Louie Louie - Richard Berry
TTITLE10=Space Guitar - Young Johnny Watson
TTITLE11=Elmore's Contribution to Jazz - Elmore James
TTITLE12=I Got Love If You Want It - Slim Harpo
TTITLE13=Black Cat Bone - Lightnin' Hopkins
TTITLE14=Preaching Blues (Up Jumped The Devil) - Robert Johnson
TTITLE15=Death Letter - Son House
TTITLE16=Moanin' At Midnight - Howlin' Wolf
TTITLE17=Reconsider Baby - Lowell Fulson
TTITLE18=I Ain't Got You - Jimmy Reed
TTITLE19=Troubles, Troubles, Troubles - B.B. King
TTITLE20=If I Had Possession Over Judgement Day - Robert Johnson
TTITLE21=Outside Woman Blues - Blind Joe Reynolds
EXTD=
EXTT0=
EXTT1=
EXTT2=
EXTT3=
EXTT4=
EXTT5=
EXTT6=
EXTT7=
EXTT8=
EXTT9=
EXTT10=
EXTT11=
EXTT12=
EXTT13=
EXTT14=
EXTT15=
EXTT16=
EXTT17=
EXTT18=
EXTT19=
EXTT20=
EXTT21=
PLAYORDER=
